<?xml version="1.0" encoding="iso-8859-1"?>
<!-- Generator: Adobe Illustrator 19.0.0, SVG Export Plug-In . SVG Version: 6.00 Build 0)  -->
<svg version="1.1" id="Layer_1" xmlns="http://www.w3.org/2000/svg" xmlns:xlink="http://www.w3.org/1999/xlink" x="0px" y="0px"
	 viewBox="0 0 273.995 273.995" style="enable-background:new 0 0 273.995 273.995;" xml:space="preserve">
<g>
	<g>
		<g>
			<g id="XMLID_39_">
				<g>
					<path style="fill:#F9D4D4;" d="M149.439,162.217c13.021,0,23.636,10.551,23.636,23.572c0,12.989-10.615,23.572-23.636,23.572
						h-29.152c-13.021,0-23.636-10.583-23.636-23.572c0-13.021,10.615-23.572,23.636-23.572H149.439z M159.637,185.468
						c0-5.324-4.33-9.653-9.685-9.653c-5.324,0-9.685,4.33-9.685,9.653c0,5.356,4.362,9.653,9.685,9.653
						C155.308,195.121,159.637,190.824,159.637,185.468z M129.074,185.468c0-5.324-4.33-9.653-9.685-9.653
						c-5.356,0-9.685,4.33-9.685,9.653c0,5.356,4.33,9.653,9.685,9.653S129.074,190.824,129.074,185.468z"/>
					<path style="fill:#F4C9C9;" d="M66.76,33.132l4.907,45.348l-49.1-7.793C34.497,54.363,49.089,41.983,66.76,33.132z"/>
					<path style="fill:#FFE9E9;" d="M196.711,103.88c-7.376,0-13.374,5.997-13.374,13.341c0,7.376,5.997,13.374,13.374,13.374
						c7.408,0,13.406-5.997,13.406-13.374C210.117,109.877,204.119,103.88,196.711,103.88z M35.203,89.64l44.675,7.088
						c0.449,0.064,0.866,0.096,1.315,0.096c2.149,0,4.201-0.802,5.773-2.309c1.892-1.796,2.854-4.362,2.566-6.959l-4.297-39.511
						c11.449-4.49,23.893-6.991,36.913-6.991h27.388c13.855,0,27.068,2.822,39.126,7.825l-4.201,38.677
						c-0.257,2.598,0.673,5.163,2.566,6.959c1.571,1.507,3.656,2.309,5.773,2.309c0.449,0,0.898-0.032,1.315-0.096l42.558-6.767
						c9.493,15.458,15.073,33.546,15.073,52.981c0,56.188-45.861,101.889-102.21,101.889h-27.388
						c-56.348,0-102.21-45.701-102.21-101.889C19.937,123.379,25.581,105.163,35.203,89.64z M87.927,117.221
						c0-7.344-5.997-13.341-13.374-13.341c-7.408,0-13.406,5.997-13.406,13.341c0,7.376,5.997,13.374,13.406,13.374
						C81.93,130.595,87.927,124.598,87.927,117.221z M189.848,185.789c0-22.225-18.12-40.313-40.409-40.313h-29.152
						c-22.289,0-40.409,18.088-40.409,40.313s18.12,40.313,40.409,40.313h29.152C171.728,226.102,189.848,208.014,189.848,185.789z"
						/>
					<path style="fill:#F4C9C9;" d="M251.424,70.687l-49.1,7.793l4.939-45.348C224.933,41.983,239.494,54.363,251.424,70.687z"/>
					<path style="fill:#2D213F;" d="M272.783,72.579c1.443,2.373,1.604,5.324,0.449,7.857c-1.187,2.502-3.528,4.265-6.286,4.714
						l-12.572,1.988c8.948,16.645,14.111,35.631,14.111,55.803c0,65.392-53.366,118.598-118.951,118.598h-27.388
						c-65.585,0-118.983-53.205-118.983-118.598c0-20.301,5.228-39.415,14.304-56.124L7.044,85.151
						c-2.726-0.449-5.099-2.213-6.254-4.714c-1.187-2.534-1.026-5.484,0.417-7.857c16.837-27.805,40.217-47.85,69.529-59.523
						c2.405-0.962,5.163-0.77,7.408,0.577c2.245,1.347,3.752,3.688,4.041,6.286l1.187,10.968
						c12.155-4.201,25.176-6.542,38.774-6.542h27.388c14.4,0,28.222,2.598,41.019,7.312l1.283-11.738
						c0.289-2.598,1.764-4.939,4.009-6.286s5.003-1.539,7.44-0.577C232.566,24.729,255.978,44.773,272.783,72.579z M202.323,78.48
						l49.1-7.793c-11.93-16.324-26.49-28.703-44.161-37.555L202.323,78.48z M251.745,142.942c0-19.435-5.58-37.523-15.073-52.981
						l-42.558,6.767c-0.417,0.064-0.866,0.096-1.315,0.096c-2.117,0-4.201-0.802-5.773-2.309c-1.892-1.796-2.822-4.362-2.566-6.959
						l4.201-38.677c-12.059-5.003-25.272-7.825-39.126-7.825h-27.388c-13.021,0-25.464,2.502-36.913,6.991l4.297,39.511
						c0.289,2.598-0.673,5.163-2.566,6.959c-1.571,1.507-3.624,2.309-5.773,2.309c-0.449,0-0.866-0.032-1.315-0.096L35.203,89.64
						c-9.621,15.522-15.266,33.738-15.266,53.302c0,56.188,45.861,101.889,102.21,101.889h27.388
						C205.883,244.831,251.745,199.13,251.745,142.942z M71.667,78.48L66.76,33.132c-17.671,8.852-32.263,21.231-44.194,37.555
						L71.667,78.48z"/>
					<path style="fill:#2D213F;" d="M196.711,103.88c7.408,0,13.406,5.997,13.406,13.341c0,7.376-5.997,13.374-13.406,13.374
						c-7.376,0-13.374-5.997-13.374-13.374C183.338,109.877,189.335,103.88,196.711,103.88z"/>
					<path style="fill:#2D213F;" d="M149.439,145.476c22.289,0,40.409,18.088,40.409,40.313s-18.12,40.313-40.409,40.313h-29.152
						c-22.289,0-40.409-18.088-40.409-40.313s18.12-40.313,40.409-40.313H149.439z M173.075,185.789
						c0-13.021-10.615-23.572-23.636-23.572h-29.152c-13.021,0-23.636,10.551-23.636,23.572c0,12.989,10.615,23.572,23.636,23.572
						h29.152C162.459,209.361,173.075,198.777,173.075,185.789z"/>
					<path style="fill:#2D213F;" d="M149.952,175.815c5.356,0,9.685,4.33,9.685,9.653c0,5.356-4.33,9.653-9.685,9.653
						c-5.324,0-9.685-4.297-9.685-9.653C140.266,180.144,144.628,175.815,149.952,175.815z"/>
					<path style="fill:#2D213F;" d="M119.388,175.815c5.356,0,9.685,4.33,9.685,9.653c0,5.356-4.33,9.653-9.685,9.653
						c-5.356,0-9.685-4.297-9.685-9.653C109.703,180.144,114.033,175.815,119.388,175.815z"/>
					<path style="fill:#2D213F;" d="M74.553,103.88c7.376,0,13.374,5.997,13.374,13.341c0,7.376-5.997,13.374-13.374,13.374
						c-7.408,0-13.406-5.997-13.406-13.374C61.148,109.877,67.145,103.88,74.553,103.88z"/>
				</g>
			</g>
		</g>
		<path style="fill:#F4C9C9;" d="M38.676,201.632c18.527,26.106,49.03,43.199,83.471,43.199h27.388
			c34.835,0,65.649-17.479,84.109-44.094C157.328,258.073,85.336,234.097,38.676,201.632z"/>
	</g>
</g>
<g>
</g>
<g>
</g>
<g>
</g>
<g>
</g>
<g>
</g>
<g>
</g>
<g>
</g>
<g>
</g>
<g>
</g>
<g>
</g>
<g>
</g>
<g>
</g>
<g>
</g>
<g>
</g>
<g>
</g>
</svg>
